<mxfile host="app.diagrams.net" agent="Mozilla/5.0 (Windows NT 10.0; Win64; x64) AppleWebKit/537.36 (KHTML, like Gecko) Chrome/132.0.0.0 Safari/537.36 Edg/132.0.0.0" version="26.0.10">
  <diagram name="ページ1" id="REP53M9-QqLsAPiO5-gD">
    <mxGraphModel dx="1116" dy="624" grid="1" gridSize="10" guides="1" tooltips="1" connect="1" arrows="1" fold="1" page="1" pageScale="1" pageWidth="827" pageHeight="1169" math="0" shadow="0">
      <root>
        <mxCell id="0" />
        <mxCell id="1" parent="0" />
        <mxCell id="jsNtaEcaQ_3uzXTVCimH-36" value="" style="group" vertex="1" connectable="0" parent="1">
          <mxGeometry x="120" y="150" width="770" height="520" as="geometry" />
        </mxCell>
        <mxCell id="jsNtaEcaQ_3uzXTVCimH-38" value="" style="rounded=0;whiteSpace=wrap;html=1;strokeColor=none;" vertex="1" parent="jsNtaEcaQ_3uzXTVCimH-36">
          <mxGeometry x="-33.25" y="-30" width="803.25" height="550" as="geometry" />
        </mxCell>
        <mxCell id="jsNtaEcaQ_3uzXTVCimH-29" value="" style="rounded=0;whiteSpace=wrap;html=1;" vertex="1" parent="jsNtaEcaQ_3uzXTVCimH-36">
          <mxGeometry y="120" width="340" height="350" as="geometry" />
        </mxCell>
        <mxCell id="jsNtaEcaQ_3uzXTVCimH-4" value="" style="outlineConnect=0;dashed=0;verticalLabelPosition=bottom;verticalAlign=top;align=center;html=1;shape=mxgraph.aws3.cloud_2;fillColor=#F58534;gradientColor=none;" vertex="1" parent="jsNtaEcaQ_3uzXTVCimH-36">
          <mxGeometry y="120" width="53.5" height="50.44285714285714" as="geometry" />
        </mxCell>
        <mxCell id="jsNtaEcaQ_3uzXTVCimH-20" value="" style="verticalLabelPosition=bottom;verticalAlign=top;html=1;shadow=0;dashed=0;strokeWidth=1;shape=mxgraph.android.phone2;strokeColor=#c0c0c0;" vertex="1" parent="jsNtaEcaQ_3uzXTVCimH-36">
          <mxGeometry x="662.5" y="150" width="72.05" height="140.5" as="geometry" />
        </mxCell>
        <mxCell id="jsNtaEcaQ_3uzXTVCimH-25" value="" style="group" vertex="1" connectable="0" parent="jsNtaEcaQ_3uzXTVCimH-36">
          <mxGeometry x="360" y="140" width="95" height="78" as="geometry" />
        </mxCell>
        <mxCell id="jsNtaEcaQ_3uzXTVCimH-21" value="" style="aspect=fixed;sketch=0;html=1;dashed=0;whitespace=wrap;verticalLabelPosition=bottom;verticalAlign=top;fillColor=#2875E2;strokeColor=#ffffff;points=[[0.005,0.63,0],[0.1,0.2,0],[0.9,0.2,0],[0.5,0,0],[0.995,0.63,0],[0.72,0.99,0],[0.5,1,0],[0.28,0.99,0]];shape=mxgraph.kubernetes.icon2;kubernetesLabel=1;prIcon=api" vertex="1" parent="jsNtaEcaQ_3uzXTVCimH-25">
          <mxGeometry x="22.5" width="50" height="48" as="geometry" />
        </mxCell>
        <mxCell id="jsNtaEcaQ_3uzXTVCimH-24" value="LINE&lt;div&gt;Messaging API　&lt;/div&gt;" style="text;html=1;align=center;verticalAlign=middle;whiteSpace=wrap;rounded=0;" vertex="1" parent="jsNtaEcaQ_3uzXTVCimH-25">
          <mxGeometry y="48" width="95" height="30" as="geometry" />
        </mxCell>
        <mxCell id="jsNtaEcaQ_3uzXTVCimH-30" value="メッセージ送信" style="text;html=1;align=center;verticalAlign=middle;whiteSpace=wrap;rounded=0;" vertex="1" parent="jsNtaEcaQ_3uzXTVCimH-36">
          <mxGeometry x="372.5" y="228" width="70" height="30" as="geometry" />
        </mxCell>
        <mxCell id="jsNtaEcaQ_3uzXTVCimH-33" value="" style="group" vertex="1" connectable="0" parent="jsNtaEcaQ_3uzXTVCimH-36">
          <mxGeometry x="492.5" y="183" width="60" height="87" as="geometry" />
        </mxCell>
        <mxCell id="jsNtaEcaQ_3uzXTVCimH-6" value="" style="verticalLabelPosition=bottom;aspect=fixed;html=1;shape=mxgraph.salesforce.bots;" vertex="1" parent="jsNtaEcaQ_3uzXTVCimH-33">
          <mxGeometry width="60" height="57" as="geometry" />
        </mxCell>
        <mxCell id="jsNtaEcaQ_3uzXTVCimH-31" value="LINE Bot" style="text;html=1;align=center;verticalAlign=middle;whiteSpace=wrap;rounded=0;" vertex="1" parent="jsNtaEcaQ_3uzXTVCimH-33">
          <mxGeometry y="57" width="60" height="30" as="geometry" />
        </mxCell>
        <mxCell id="jsNtaEcaQ_3uzXTVCimH-34" value="" style="endArrow=classic;html=1;rounded=0;" edge="1" parent="jsNtaEcaQ_3uzXTVCimH-36">
          <mxGeometry width="50" height="50" relative="1" as="geometry">
            <mxPoint x="562.5" y="220" as="sourcePoint" />
            <mxPoint x="652.5" y="220" as="targetPoint" />
          </mxGeometry>
        </mxCell>
        <mxCell id="jsNtaEcaQ_3uzXTVCimH-35" value="LINEに通知" style="text;html=1;align=center;verticalAlign=middle;whiteSpace=wrap;rounded=0;" vertex="1" parent="jsNtaEcaQ_3uzXTVCimH-36">
          <mxGeometry x="572.5" y="228" width="70" height="30" as="geometry" />
        </mxCell>
        <mxCell id="jsNtaEcaQ_3uzXTVCimH-37" value="&lt;b&gt;LINE&lt;/b&gt;" style="text;html=1;align=center;verticalAlign=middle;whiteSpace=wrap;rounded=0;" vertex="1" parent="jsNtaEcaQ_3uzXTVCimH-36">
          <mxGeometry x="668.52" y="205.25" width="60" height="30" as="geometry" />
        </mxCell>
        <mxCell id="jsNtaEcaQ_3uzXTVCimH-14" value="" style="group" vertex="1" connectable="0" parent="jsNtaEcaQ_3uzXTVCimH-36">
          <mxGeometry x="210" y="-10" width="60" height="78" as="geometry" />
        </mxCell>
        <mxCell id="jsNtaEcaQ_3uzXTVCimH-3" value="" style="aspect=fixed;sketch=0;html=1;dashed=0;whitespace=wrap;verticalLabelPosition=bottom;verticalAlign=top;fillColor=#2875E2;strokeColor=#ffffff;points=[[0.005,0.63,0],[0.1,0.2,0],[0.9,0.2,0],[0.5,0,0],[0.995,0.63,0],[0.72,0.99,0],[0.5,1,0],[0.28,0.99,0]];shape=mxgraph.kubernetes.icon2;kubernetesLabel=1;prIcon=api" vertex="1" parent="jsNtaEcaQ_3uzXTVCimH-14">
          <mxGeometry x="5" width="50" height="48" as="geometry" />
        </mxCell>
        <mxCell id="jsNtaEcaQ_3uzXTVCimH-13" value="bitbank public api" style="text;html=1;align=center;verticalAlign=middle;whiteSpace=wrap;rounded=0;" vertex="1" parent="jsNtaEcaQ_3uzXTVCimH-14">
          <mxGeometry y="48" width="60" height="30" as="geometry" />
        </mxCell>
        <mxCell id="jsNtaEcaQ_3uzXTVCimH-9" value="" style="group" vertex="1" connectable="0" parent="1">
          <mxGeometry x="140" y="330" width="373.5" height="281" as="geometry" />
        </mxCell>
        <mxCell id="jsNtaEcaQ_3uzXTVCimH-1" value="" style="sketch=0;points=[[0,0,0],[0.25,0,0],[0.5,0,0],[0.75,0,0],[1,0,0],[0,1,0],[0.25,1,0],[0.5,1,0],[0.75,1,0],[1,1,0],[0,0.25,0],[0,0.5,0],[0,0.75,0],[1,0.25,0],[1,0.5,0],[1,0.75,0]];outlineConnect=0;fontColor=#232F3E;fillColor=#E7157B;strokeColor=#ffffff;dashed=0;verticalLabelPosition=bottom;verticalAlign=top;align=center;html=1;fontSize=12;fontStyle=0;aspect=fixed;shape=mxgraph.aws4.resourceIcon;resIcon=mxgraph.aws4.eventbridge;" vertex="1" parent="jsNtaEcaQ_3uzXTVCimH-9">
          <mxGeometry width="78" height="78" as="geometry" />
        </mxCell>
        <mxCell id="jsNtaEcaQ_3uzXTVCimH-8" value="EventBridge" style="text;html=1;align=center;verticalAlign=middle;whiteSpace=wrap;rounded=0;" vertex="1" parent="jsNtaEcaQ_3uzXTVCimH-9">
          <mxGeometry y="80" width="80" height="30" as="geometry" />
        </mxCell>
        <mxCell id="jsNtaEcaQ_3uzXTVCimH-10" style="edgeStyle=orthogonalEdgeStyle;rounded=0;orthogonalLoop=1;jettySize=auto;html=1;exitX=0.5;exitY=1;exitDx=0;exitDy=0;exitPerimeter=0;" edge="1" parent="jsNtaEcaQ_3uzXTVCimH-9" source="jsNtaEcaQ_3uzXTVCimH-1" target="jsNtaEcaQ_3uzXTVCimH-1">
          <mxGeometry relative="1" as="geometry" />
        </mxCell>
        <mxCell id="jsNtaEcaQ_3uzXTVCimH-16" value="定期実行" style="text;html=1;align=center;verticalAlign=middle;whiteSpace=wrap;rounded=0;" vertex="1" parent="jsNtaEcaQ_3uzXTVCimH-9">
          <mxGeometry x="100" y="40" width="60" height="30" as="geometry" />
        </mxCell>
        <mxCell id="jsNtaEcaQ_3uzXTVCimH-26" value="" style="endArrow=classic;html=1;rounded=0;" edge="1" parent="jsNtaEcaQ_3uzXTVCimH-9">
          <mxGeometry width="50" height="50" relative="1" as="geometry">
            <mxPoint x="260" y="40" as="sourcePoint" />
            <mxPoint x="470" y="40" as="targetPoint" />
          </mxGeometry>
        </mxCell>
        <mxCell id="jsNtaEcaQ_3uzXTVCimH-41" value="" style="group" vertex="1" connectable="0" parent="jsNtaEcaQ_3uzXTVCimH-9">
          <mxGeometry x="183" y="170" width="72" height="111" as="geometry" />
        </mxCell>
        <mxCell id="jsNtaEcaQ_3uzXTVCimH-39" value="" style="outlineConnect=0;dashed=0;verticalLabelPosition=bottom;verticalAlign=top;align=center;html=1;shape=mxgraph.aws3.dynamo_db;fillColor=#2E73B8;gradientColor=none;" vertex="1" parent="jsNtaEcaQ_3uzXTVCimH-41">
          <mxGeometry width="72" height="81" as="geometry" />
        </mxCell>
        <mxCell id="jsNtaEcaQ_3uzXTVCimH-40" value="DynamoDB" style="text;html=1;align=center;verticalAlign=middle;whiteSpace=wrap;rounded=0;" vertex="1" parent="jsNtaEcaQ_3uzXTVCimH-41">
          <mxGeometry x="6" y="81" width="60" height="30" as="geometry" />
        </mxCell>
        <mxCell id="jsNtaEcaQ_3uzXTVCimH-43" value="設定価格を取得" style="text;html=1;align=center;verticalAlign=middle;whiteSpace=wrap;rounded=0;" vertex="1" parent="jsNtaEcaQ_3uzXTVCimH-9">
          <mxGeometry x="220" y="125.5" width="90" height="30" as="geometry" />
        </mxCell>
        <mxCell id="jsNtaEcaQ_3uzXTVCimH-12" value="" style="group" vertex="1" connectable="0" parent="1">
          <mxGeometry x="320" y="331" width="93.75" height="109" as="geometry" />
        </mxCell>
        <mxCell id="jsNtaEcaQ_3uzXTVCimH-2" value="" style="sketch=0;points=[[0,0,0],[0.25,0,0],[0.5,0,0],[0.75,0,0],[1,0,0],[0,1,0],[0.25,1,0],[0.5,1,0],[0.75,1,0],[1,1,0],[0,0.25,0],[0,0.5,0],[0,0.75,0],[1,0.25,0],[1,0.5,0],[1,0.75,0]];outlineConnect=0;fontColor=#232F3E;fillColor=#ED7100;strokeColor=#ffffff;dashed=0;verticalLabelPosition=bottom;verticalAlign=top;align=center;html=1;fontSize=12;fontStyle=0;aspect=fixed;shape=mxgraph.aws4.resourceIcon;resIcon=mxgraph.aws4.lambda;" vertex="1" parent="jsNtaEcaQ_3uzXTVCimH-12">
          <mxGeometry width="78" height="78" as="geometry" />
        </mxCell>
        <mxCell id="jsNtaEcaQ_3uzXTVCimH-5" value="" style="outlineConnect=0;dashed=0;verticalLabelPosition=bottom;verticalAlign=top;align=center;html=1;shape=mxgraph.aws3.android;fillColor=#FFD44F;gradientColor=none;" vertex="1" parent="jsNtaEcaQ_3uzXTVCimH-12">
          <mxGeometry x="50" y="39" width="43.75" height="50" as="geometry" />
        </mxCell>
        <mxCell id="jsNtaEcaQ_3uzXTVCimH-11" value="Lambda" style="text;html=1;align=center;verticalAlign=middle;whiteSpace=wrap;rounded=0;" vertex="1" parent="jsNtaEcaQ_3uzXTVCimH-12">
          <mxGeometry x="9" y="79" width="60" height="30" as="geometry" />
        </mxCell>
        <mxCell id="jsNtaEcaQ_3uzXTVCimH-15" value="" style="endArrow=classic;html=1;rounded=0;entryX=0;entryY=0.5;entryDx=0;entryDy=0;entryPerimeter=0;" edge="1" parent="1" source="jsNtaEcaQ_3uzXTVCimH-1" target="jsNtaEcaQ_3uzXTVCimH-2">
          <mxGeometry width="50" height="50" relative="1" as="geometry">
            <mxPoint x="390" y="410" as="sourcePoint" />
            <mxPoint x="440" y="360" as="targetPoint" />
          </mxGeometry>
        </mxCell>
        <mxCell id="jsNtaEcaQ_3uzXTVCimH-22" value="" style="endArrow=classic;html=1;rounded=0;exitX=0.5;exitY=1;exitDx=0;exitDy=0;" edge="1" parent="1" source="jsNtaEcaQ_3uzXTVCimH-13" target="jsNtaEcaQ_3uzXTVCimH-2">
          <mxGeometry width="50" height="50" relative="1" as="geometry">
            <mxPoint x="390" y="410" as="sourcePoint" />
            <mxPoint x="440" y="360" as="targetPoint" />
          </mxGeometry>
        </mxCell>
        <mxCell id="jsNtaEcaQ_3uzXTVCimH-23" value="仮想通貨の価格を取得" style="text;html=1;align=center;verticalAlign=middle;whiteSpace=wrap;rounded=0;" vertex="1" parent="1">
          <mxGeometry x="360" y="230" width="70" height="40" as="geometry" />
        </mxCell>
        <mxCell id="jsNtaEcaQ_3uzXTVCimH-42" value="" style="endArrow=classic;html=1;rounded=0;entryX=0.5;entryY=1;entryDx=0;entryDy=0;" edge="1" parent="1" source="jsNtaEcaQ_3uzXTVCimH-39" target="jsNtaEcaQ_3uzXTVCimH-11">
          <mxGeometry width="50" height="50" relative="1" as="geometry">
            <mxPoint x="320" y="460" as="sourcePoint" />
            <mxPoint x="370" y="410" as="targetPoint" />
          </mxGeometry>
        </mxCell>
      </root>
    </mxGraphModel>
  </diagram>
</mxfile>
